HIERARCHY
ROOT Hips
{
	OFFSET 0.000000 0.000000 0.000000
	CHANNELS 6 Xposition Yposition Zposition Zrotation Yrotation Xrotation 
	JOINT LHipJoint
	{
		OFFSET 0.000000 0.000000 0.000000
		CHANNELS 3 Zrotation Yrotation Xrotation
		JOINT LeftUpLeg
		{
			OFFSET 1.363060 -1.794630 0.839290
			CHANNELS 3 Zrotation Yrotation Xrotation
			JOINT LeftLeg
			{
				OFFSET 2.448110 -6.726130 0.000000
				CHANNELS 3 Zrotation Yrotation Xrotation
				JOINT LeftFoot
				{
					OFFSET 2.562200 -7.039590 0.000000
					CHANNELS 3 Zrotation Yrotation Xrotation
					JOINT LeftToeBase
					{
						OFFSET 0.157640 -0.433110 2.322550
						CHANNELS 3 Zrotation Yrotation Xrotation
						End Site
						{
							OFFSET 0.000000 0.000000 0.000000
						}
					}
				}
			}
		}
	}
	JOINT RHipJoint
	{
		OFFSET 0.000000 0.000000 0.000000
		CHANNELS 3 Zrotation Yrotation Xrotation
		JOINT RightUpLeg
		{
			OFFSET -1.305520 -1.794630 0.839290
			CHANNELS 3 Zrotation Yrotation Xrotation
			JOINT RightLeg
			{
				OFFSET -2.542530 -6.985550 0.000000
				CHANNELS 3 Zrotation Yrotation Xrotation
				JOINT RightFoot
				{
					OFFSET -2.568260 -7.056230 0.000000
					CHANNELS 3 Zrotation Yrotation Xrotation
					JOINT RightToeBase
					{
						OFFSET -0.164730 -0.452590 2.363150
						CHANNELS 3 Zrotation Yrotation Xrotation
						End Site
						{
							OFFSET 0.000000 0.000000 0.000000
						}
					}
				}
			}
		}
	}
}
MOTION
Frames: 22
Frame Time: 0.008333
18.612873 16.297403 2.385769 50.619194 -87.945628 -49.988955 -10.222545 2.718508 -0.509346 -4.128459 15.999577 -13.999159 -1.973980 1.382026 37.523767 2.684281 13.849417 -22.683715 -4.145901 0.000000 -50.935699 11.194288 -1.246589 -2.812434 -0.056761 -23.136515 -11.778970 1.958671 -1.973563 38.479875 -1.803409 -5.252410 -22.114302 1.760601 0.000000 -72.640400
18.591275 16.253000 2.388135 51.851011 -87.906240 -50.955234 -10.217414 2.684198 -0.534430 -4.326308 15.833564 -14.752161 -1.959814 1.464339 38.780098 2.752496 14.109694 -23.272458 -4.366700 -0.000000 -50.784700 11.215651 -1.215463 -2.807904 -0.025864 -22.994854 -12.588467 1.950611 -2.084201 39.772734 -1.844385 -5.344661 -22.730861 1.858600 -0.000001 -72.594400
18.572050 16.202686 2.390955 52.911010 -87.869192 -51.754839 -10.217321 2.643678 -0.571391 -4.524706 15.644624 -15.571339 -1.936279 1.562426 40.195144 2.829675 14.427457 -23.887535 -4.613200 0.000000 -50.654700 11.238132 -1.179400 -2.816998 0.007750 -22.848951 -13.452224 1.935734 -2.210059 41.206103 -1.887534 -5.452862 -23.371696 1.964500 -0.000000 -72.579000
18.553964 16.146234 2.393792 53.929055 -87.824499 -52.506665 -10.218422 2.601375 -0.612522 -4.742633 15.436270 -16.465793 -1.903801 1.673517 41.751389 2.915751 14.801206 -24.521990 -4.885800 -0.000000 -50.556300 11.265374 -1.139060 -2.831906 0.033305 -22.710402 -14.386233 1.914382 -2.349629 42.775705 -1.930668 -5.563783 -24.037451 2.075800 0.000000 -72.597400
18.538168 16.083303 2.397144 54.717427 -87.787841 -53.036344 -10.226242 2.552889 -0.666952 -4.950501 15.222780 -17.415894 -1.861793 1.799133 43.445513 3.008396 15.219382 -25.180074 -5.183900 0.000000 -50.460800 11.292871 -1.095760 -2.860132 0.066447 -22.568497 -15.359417 1.885190 -2.502535 44.464524 -1.975135 -5.687832 -24.721507 2.194500 -0.000000 -72.632300
18.523057 16.013919 2.400425 55.462026 -87.746275 -53.519101 -10.235482 2.503955 -0.724610 -5.171630 15.009507 -18.426205 -1.812050 1.934732 45.245801 3.106512 15.670575 -25.858538 -5.505700 0.000000 -50.368401 11.324983 -1.050166 -2.891255 0.092032 -22.436972 -16.386748 1.849221 -2.666061 46.259573 -2.018582 -5.807618 -25.429521 2.317300 0.000000 -72.670800
18.510026 15.938079 2.404266 55.971258 -87.716786 -53.781497 -10.252086 2.450281 -0.796337 -5.370076 14.814639 -19.461699 -1.755154 2.081311 47.137560 3.206030 16.132460 -26.563399 -5.847400 0.000000 -50.258000 11.356746 -1.003985 -2.935291 0.122762 -22.310375 -17.421798 1.806184 -2.838824 48.131883 -2.061839 -5.929121 -26.156732 2.445400 -0.000000 -72.697900
18.496697 15.856114 2.407980 56.447640 -87.685085 -54.013399 -10.270212 2.398489 -0.869877 -5.571009 14.641124 -20.527427 -1.693640 2.233690 49.086228 3.305320 16.587993 -27.293896 -6.205100 -0.000001 -50.132700 11.392309 -0.958239 -2.979955 0.143938 -22.202586 -18.481278 1.757758 -3.017635 50.065260 -2.102958 -6.034652 -26.911536 2.575200 0.000000 -72.692800
18.484113 15.768352 2.412023 56.774017 -87.661724 -54.117359 -10.293696 2.345926 -0.954156 -5.747252 14.501617 -21.585828 -1.628556 2.392352 51.073051 3.400238 17.014595 -28.052609 -6.572300 0.000000 -49.992900 11.428648 -0.913583 -3.034695 0.158242 -22.115321 -19.521262 1.704368 -3.201118 52.031388 -2.141845 -6.124386 -27.689724 2.705700 0.000000 -72.659500
18.471780 15.675387 2.416260 56.995767 -87.643618 -54.142381 -10.321641 2.295231 -1.047494 -5.897212 14.402977 -22.617649 -1.561612 2.555198 53.073604 3.487560 17.392257 -28.836283 -6.940600 0.000000 -49.862200 11.466430 -0.871094 -3.098436 0.157032 -22.057860 -20.525389 1.647237 -3.387189 54.009016 -2.177209 -6.188800 -28.490770 2.833700 0.000000 -72.590899
18.458332 15.577928 2.420426 57.228581 -87.623330 -54.196154 -10.351108 2.249815 -1.142684 -6.033945 14.339247 -23.626116 -1.493469 2.719755 55.073000 3.565972 17.710865 -29.637963 -7.302900 0.000001 -49.767700 11.507517 -0.831118 -3.164709 0.134285 -22.034640 -21.504749 1.586912 -3.574611 55.989630 -2.208391 -6.221522 -29.313361 2.955700 -0.000001 -72.497200
18.443768 15.476687 2.424510 57.492257 -87.599706 -54.303274 -10.382259 2.210368 -1.239817 -6.153539 14.309701 -24.598067 -1.423941 2.885354 57.060924 3.633191 17.960679 -30.445137 -7.649100 0.000000 -49.751001 11.551940 -0.793894 -3.234325 0.085612 -22.047828 -22.447660 1.523161 -3.762762 57.961115 -2.234598 -6.220619 -30.146630 3.068200 -0.000000 -72.396900
18.428979 15.372493 2.428757 57.743464 -87.576124 -54.433014 -10.416990 2.175143 -1.345220 -6.242195 14.312491 -25.509175 -1.351799 3.053012 59.031902 3.687066 18.138027 -31.240268 -7.968800 -0.000000 -49.859100 11.599068 -0.758482 -3.314901 0.007085 -22.096949 -23.328418 1.454933 -3.951908 59.912402 -2.254977 -6.188802 -30.972390 3.167700 0.000000 -72.341200
18.412429 15.266166 2.432819 58.122435 -87.543440 -54.707387 -10.452144 2.147176 -1.448023 -6.321057 14.333208 -26.382938 -1.275271 3.220209 60.984387 3.728327 18.249590 -32.001928 -8.254400 0.000000 -50.132700 11.650791 -0.725380 -3.395063 -0.102063 -22.175524 -24.179323 1.380571 -4.141731 61.848685 -2.269211 -6.127335 -31.776804 3.251300 0.000001 -72.341100
18.394491 15.158517 2.436715 58.642132 -87.501466 -55.139853 -10.487874 2.125373 -1.548638 -6.390225 14.364148 -27.218357 -1.192151 3.386787 62.917911 3.757004 18.303775 -32.708926 -8.499100 0.000000 -50.603000 11.707188 -0.693696 -3.474976 -0.241389 -22.275129 -25.000922 1.297788 -4.332483 63.768717 -2.276876 -6.042681 -32.539085 3.316800 0.000000 -72.429200
18.375589 15.050399 2.440717 59.243374 -87.455085 -55.674343 -10.526162 2.106888 -1.651952 -6.439530 14.400589 -28.004209 -1.100313 3.553385 64.830244 3.773118 18.310749 -33.341779 -8.698400 0.000000 -51.287800 11.767002 -0.662714 -3.559258 -0.406823 -22.384618 -25.779986 1.204177 -4.524158 65.666606 -2.277791 -5.945481 -33.235255 3.364000 0.000000 -72.665500
18.355160 14.942576 2.444536 60.022072 -87.398556 -56.390529 -10.564244 2.092715 -1.749331 -6.488438 14.430740 -28.764976 -0.998281 3.717374 66.717492 3.779358 18.287503 -33.887020 -8.853500 -0.000000 -52.175000 11.831229 -0.632273 -3.637226 -0.593382 -22.489553 -26.547156 1.097525 -4.715894 67.546324 -2.272510 -5.843341 -33.853054 3.393900 0.000001 -73.031901
18.333340 14.835803 2.448281 60.934388 -87.335290 -57.242873 -10.602717 2.080827 -1.842141 -6.534802 14.451830 -29.497994 -0.885750 3.877945 68.570205 3.777389 18.246346 -34.339634 -8.967800 -0.000000 -53.234000 11.898596 -0.602027 -3.708923 -0.794239 -22.577241 -27.298644 0.976606 -4.906452 69.399944 -2.261817 -5.746473 -34.381192 3.409300 -0.000000 -73.531800
18.309846 14.730847 2.451858 61.982490 -87.264749 -58.226206 -10.640320 2.070922 -1.927364 -6.586043 14.461216 -30.209183 -0.763941 4.032964 70.374391 3.770143 18.200378 -34.705375 -9.049201 0.000000 -54.407201 11.968545 -0.572082 -3.769456 -1.002286 -22.636089 -28.041495 0.841322 -5.093810 71.219043 -2.247161 -5.663188 -34.818516 3.414600 0.000001 -74.136500
18.285038 14.628538 2.455606 63.035188 -87.195741 -59.215418 -10.679229 2.060257 -2.010067 -6.628276 14.464642 -30.880493 -0.635505 4.181962 72.110530 3.759496 18.156633 -34.999014 -9.106300 -0.000000 -55.636701 12.037942 -0.543218 -3.823208 -1.207681 -22.658826 -28.751989 0.693441 -5.275265 72.982273 -2.230370 -5.603483 -35.166427 3.415200 -0.000000 -74.842400
18.258042 14.529533 2.459170 64.140428 -87.122706 -60.243853 -10.715756 2.051686 -2.082253 -6.680285 14.460505 -31.523124 -0.504939 4.321408 73.756985 3.749672 18.124556 -35.246865 -9.153201 0.000000 -56.830700 12.107279 -0.516111 -3.860851 -1.407146 -22.641654 -29.444343 0.536197 -5.447945 74.678363 -2.213902 -5.569048 -35.446370 3.416200 0.000000 -75.556700
18.229075 14.434702 2.462813 65.161111 -87.053096 -61.185327 -10.751584 2.043919 -2.148277 -6.728781 14.456657 -32.113273 -0.377422 4.450640 75.288780 3.743014 18.107687 -35.479144 -9.202500 0.000000 -57.926200 12.173428 -0.492212 -3.887483 -1.593332 -22.586334 -30.088618 0.374509 -5.608683 76.280446 -2.200247 -5.565661 -35.675395 3.423800 -0.000000 -76.259599
